<svg width="122" height="122" viewBox="0 0 122 122" fill="none" xmlns="http://www.w3.org/2000/svg">
<path fill-rule="evenodd" clip-rule="evenodd" d="M121 60.9995C121 27.8627 94.1375 1 61.0009 1L6.55645 1.00355C3.48824 1.00355 1.00097 3.49084 1.00097 6.55906C1.00097 26.7246 10.9492 44.5666 26.2056 55.445H6.55547C3.48727 55.445 1 57.9323 1 61.0005V115.444C1 118.513 3.48727 121 6.55547 121C26.7234 121 44.5671 111.049 55.4451 95.7896V115.444C55.4451 118.512 57.9323 120.999 61.0006 120.999C94.1372 120.999 121 94.1363 121 60.9995ZM66.5563 12.4232V55.444H109.577C107.025 32.8828 89.1174 14.9751 66.5563 12.4232ZM55.4446 55.1354C32.8836 52.5834 14.976 34.6757 12.4241 12.1146H55.4446V55.1354ZM55.1315 66.556C52.5796 89.1172 34.672 107.025 12.1109 109.577L12.1109 66.556L55.1315 66.556ZM66.556 66.5555H109.577C107.025 89.1166 89.1171 107.024 66.556 109.576V66.5555Z" fill="black" fill-opacity="0.8" stroke="black" stroke-linecap="round" stroke-linejoin="round"/>
</svg>
